<svg width="1600" height="1200" viewBox="0 0 1600 1200" fill="none" xmlns="http://www.w3.org/2000/svg">
  <rect width="1600" height="1200" fill="#1F1718"/>
  <ellipse cx="338" cy="262" rx="390" ry="310" fill="#A26769" fill-opacity="0.34"/>
  <ellipse cx="1180" cy="290" rx="350" ry="280" fill="#C6A769" fill-opacity="0.25"/>
  <ellipse cx="932" cy="825" rx="480" ry="330" fill="#F3D9C9" fill-opacity="0.18"/>
  <rect x="160" y="184" width="520" height="720" rx="260" fill="#F7E7E6" fill-opacity="0.08" stroke="#F7E7E6" stroke-opacity="0.28"/>
  <rect x="520" y="322" width="420" height="560" rx="210" fill="#FFFFFF" fill-opacity="0.05" stroke="#FFFFFF" stroke-opacity="0.18"/>
  <rect x="920" y="210" width="480" height="760" rx="240" fill="#F7E7E6" fill-opacity="0.06" stroke="#F7E7E6" stroke-opacity="0.18"/>
  <path d="M235 915C398 820 541 693 689 506C792 376 872 279 1054 173" stroke="#C6A769" stroke-opacity="0.65" stroke-width="3" stroke-linecap="round"/>
  <path d="M292 979C515 829 655 691 788 524C907 373 1020 261 1238 136" stroke="#FFFFFF" stroke-opacity="0.16" stroke-width="2" stroke-linecap="round"/>
  <circle cx="1155" cy="365" r="88" fill="#FFFFFF" fill-opacity="0.06"/>
  <circle cx="1188" cy="706" r="136" fill="#A26769" fill-opacity="0.12"/>
</svg>